:version 1.10
:name ASF
:units
  mass 1
  length 1
  angle deg
:documentation
  ASF file generated by Kaydara
:root
  axis xyz
  order  tx ty tz rx ry rz
  position 0 0 0
  orientation 0 0 0
:bonedata
  begin
    id 1
    name RightUpLegDummy
    direction -0.718183 -0.695806 0.00816078
    length 4.904
    axis 0 0 0 xyz
  end
  begin
    id 2
    name RightUpLeg
    direction -0.0736652 -0.994202 0.0783343
    length 17.4976
    axis -2.72909 -3.00389 -4.00133 xyz
    dof rx ry rz
  end
  begin
    id 3
    name RightLeg
    direction -0.0389037 -0.994596 -0.0962598
    length 16.5821
    axis 3.95836 -18.5909 -4.46993 xyz
    dof rx ry rz
  end
  begin
    id 4
    name RightFoot
    direction -0.311643 -0.412678 0.855906
    length 3.77069
    axis -1.99483 -18.8351 -3.27644 xyz
    dof rx ry rz
  end
  begin
    id 5
    name RightToes
    direction -0.317852 0.0389852 0.947339
    length 3.85082
    axis -2.00228 -18.1713 -3.25211 xyz
    dof rx ry rz
  end
  begin
    id 6
    name SpineDummy
    direction 8.3039e-015 1 4.44677e-016
    length 4.6813
    axis 0 0 0 xyz
  end
  begin
    id 7
    name Spine
    direction -0.000262373 0.999988 0.00493267
    length 10.1015
    axis -0.00246081 0.00062579 0.0150362 xyz
    dof rx ry rz
  end
  begin
    id 8
    name Spine1
    direction 0 0 0
    length 0
    axis -0.00349562 0.000650293 0.0196666 xyz
    dof rx ry rz
  end
  begin
    id 9
    name HEadDummy
    direction -0.000343232 0.999999 0.00123745
    length 3.43865
    axis -0.00349562 0.000650293 0.0196666 xyz
  end
  begin
    id 10
    name HEad
    direction -0.0461221 0.980933 0.188796
    length 5.12695
    axis -0.00351404 -7.04812 0.0199272 xyz
    dof rx ry rz
  end
  begin
    id 11
    name LeftShoulder1Dummy
    direction 0.998904 -0.0399089 -0.0244534
    length 3.5433
    axis -0.00349562 0.000650293 0.0196666 xyz
  end
  begin
    id 12
    name LeftShoulder1
    direction 0.99951 1.64443e-005 0.0312999
    length 4.05031
    axis -0.00349562 0.000650293 0.0196666 xyz
    dof rx ry rz
  end
  begin
    id 13
    name LeftArm
    direction 0.984791 0.0515299 0.165927
    length 12.9126
    axis -64.823 -10.7743 5.20463 xyz
    dof rx ry rz
  end
  begin
    id 14
    name LeftForeArm
    direction 0.984968 0.0534808 0.16425
    length 10.8596
    axis -30.0462 -7.70601 1.87451 xyz
    dof rx ry rz
  end
  begin
    id 15
    name LeftHand
    direction 0.975871 0.0289682 0.216418
    length 6.62295
    axis -20.1348 -6.98077 1.86072 xyz
    dof rx ry rz
  end
  begin
    id 16
    name RightShoulderDummy
    direction -0.998877 -0.0405946 -0.0244307
    length 3.5433
    axis -0.00349562 0.000650293 0.0196666 xyz
  end
  begin
    id 17
    name RightShoulder
    direction -0.998933 -0.0249743 -0.0388558
    length 4.05031
    axis -0.0205316 -4.02113 1.41395 xyz
    dof rx ry rz
  end
  begin
    id 18
    name RightArm
    direction -0.997559 0.068664 0.0127103
    length 12.9638
    axis -67.3882 1.84188 -6.15987 xyz
    dof rx ry rz
  end
  begin
    id 19
    name RightForeArm
    direction -0.991508 0.0912848 0.0926241
    length 10.8312
    axis -22.1975 3.41087 -4.28711 xyz
    dof rx ry rz
  end
  begin
    id 20
    name RightHand
    direction -0.989262 0.0600788 0.133232
    length 6.57864
    axis -12.2911 2.17515 -4.39675 xyz
    dof rx ry rz
  end
  begin
    id 21
    name LeftUpLegDummy
    direction 0.718183 -0.695806 0.00816078
    length 4.904
    axis 0 0 0 xyz
  end
  begin
    id 22
    name LeftUpLeg
    direction 0.0831398 -0.99469 0.0606531
    length 17.4976
    axis -1.71016 2.29552 4.63832 xyz
    dof rx ry rz
  end
  begin
    id 23
    name LeftLeg
    direction 0.0498442 -0.991778 -0.117862
    length 16.5821
    axis 5.13757 15.5727 5.13348 xyz
    dof rx ry rz
  end
  begin
    id 24
    name LeftFoot
    direction 0.269026 -0.433896 0.85986
    length 3.77069
    axis -0.576502 15.6961 4.10267 xyz
    dof rx ry rz
  end
  begin
    id 25
    name LeftToes
    direction 0.277311 0.0251143 0.960452
    length 3.85048
    axis -0.576502 15.6961 4.10267 xyz
    dof rx ry rz
  end
:hierarchy
  begin
    root RightUpLegDummy SpineDummy LeftUpLegDummy
    RightUpLegDummy RightUpLeg
    RightUpLeg RightLeg
    RightLeg RightFoot
    RightFoot RightToes
    SpineDummy Spine
    Spine Spine1
    Spine1 HEadDummy LeftShoulder1Dummy RightShoulderDummy
    HEadDummy HEad
    LeftShoulder1Dummy LeftShoulder1
    LeftShoulder1 LeftArm
    LeftArm LeftForeArm
    LeftForeArm LeftHand
    RightShoulderDummy RightShoulder
    RightShoulder RightArm
    RightArm RightForeArm
    RightForeArm RightHand
    LeftUpLegDummy LeftUpLeg
    LeftUpLeg LeftLeg
    LeftLeg LeftFoot
    LeftFoot LeftToes
  end

:SAMPLES-PER-SECOND 30
:FULLY-SPECIFIED
:DEGREES
107
root  -4.04788 40.917 28.5923 1.27258 -38.9467 0.555192
RightUpLeg  -41.6095 -8.24363 5.92458
RightLeg  63.7121 13.4405 -6.41108
RightFoot  -16.3309 -0.0178389 -2.91188
RightToes  -5.82073e-011 -3.18055e-015 -2.98177e-016
Spine  21.09 0.368625 10.2464
Spine1  9.69382 3.04696 -4.99866
HEad  -2.67763 -4.38274 6.43175
LeftShoulder1  -3.88251e-019 9.70628e-020 -3.87848e-018
LeftArm  -60.0377 89.1629 -97.3397
LeftForeArm  -35.1373 -71.3085 34.1907
LeftHand  -1.43772 -10.1403 11.2931
RightShoulder  3.04106 6.72425 16.7366
RightArm  13.8303 -71.6825 9.2527
RightForeArm  -10.3482 56.774 -42.3809
RightHand  -3.09777 8.85448 -24.7907
LeftUpLeg  -53.5112 5.16197 -4.8258
LeftLeg  84.2203 -13.0439 8.22467
LeftFoot  -16.2916 -0.20062 -5.82727
LeftToes  1.2018e-011 -3.94675e-011 -1.33631e-011
108
root  -5.64378 39.6789 30.5647 4.2546 -40.1075 0.657963
RightUpLeg  -40.149 -9.78464 8.83406
RightLeg  36.6048 13.8815 -2.43985
RightFoot  -20.1596 0.126233 1.44897
RightToes  -5.82073e-011 -3.18055e-015 -2.98177e-016
Spine  17.7383 1.53213 10.6767
Spine1  12.0231 3.35143 -4.65437
HEad  -4.6111 -4.86667 5.77057
LeftShoulder1  -3.88251e-019 9.70628e-020 -3.87848e-018
LeftArm  170.923 85.3341 133.21
LeftForeArm  -32.5403 -68.9802 29.3935
LeftHand  -0.880709 -10.2007 7.02259
RightShoulder  4.20443 7.82827 22.407
RightArm  33.557 -74.1645 -10.6783
RightForeArm  -11.1227 55.2635 -39.5114
RightHand  -2.78338 9.07309 -22.0283
LeftUpLeg  -52.9738 3.70666 -3.50708
LeftLeg  57.9791 -9.75927 7.17828
LeftFoot  -20.3518 -0.448658 -6.45454
LeftToes  1.2018e-011 -3.94675e-011 -1.33631e-011
109
root  -7.22081 37.5328 32.5731 5.09275 -42.3051 1.40318
RightUpLeg  -41.1792 -8.99638 10.0286
RightLeg  25.762 15.3261 -1.07873
RightFoot  -16.3291 0.270699 8.46974
RightToes  -5.82073e-011 -3.18055e-015 -2.98177e-016
Spine  16.1287 1.97817 11.0383
Spine1  12.2033 3.93034 -6.39199
HEad  -5.57548 -4.30918 4.14013
LeftShoulder1  -3.88251e-019 9.70628e-020 -3.87848e-018
LeftArm  156.787 80.9468 118.323
LeftForeArm  -33.6465 -66.8955 25.7356
LeftHand  -0.488269 -9.71497 4.17725
RightShoulder  5.47719 8.95249 27.8924
RightArm  49.9049 -73.3274 -28.1816
RightForeArm  -10.279 53.9728 -37.443
RightHand  -2.504 9.35212 -19.5252
LeftUpLeg  -49.9563 1.24053 -1.24209
LeftLeg  36.9324 -4.02938 8.77117
LeftFoot  -18.1289 -0.253624 -3.58682
LeftToes  1.2018e-011 -3.94675e-011 -1.33631e-011
110
root  -8.38268 35.2466 34.3247 1.73792 -46.0129 1.64648
RightUpLeg  -45.0916 -4.15168 8.57951
RightLeg  37.7913 13.8862 -2.52724
RightFoot  -7.90262 -0.197941 6.39755
RightToes  -5.82073e-011 -3.18055e-015 -2.98177e-016
Spine  19.8889 1.76012 11.9852
Spine1  10.9518 4.30161 -7.19293
HEad  -7.09725 -2.54646 1.66805
LeftShoulder1  -3.88251e-019 9.70628e-020 -3.87848e-018
LeftArm  157.992 79.4563 117.262
LeftForeArm  -37.8834 -63.7604 21.1795
LeftHand  -0.598897 -8.11528 5.62988
RightShoulder  6.09564 9.48773 30.2477
RightArm  47.3454 -71.1146 -25.5263
RightForeArm  -5.56138 50.8691 -33.2872
RightHand  -2.56888 9.31004 -20.0733
LeftUpLeg  -46.7743 -2.28543 2.66608
LeftLeg  32.1803 -0.0273681 10.3036
LeftFoot  -7.95506 -0.0241341 0.47776
LeftToes  1.2018e-011 -3.94675e-011 -1.33631e-011
111
root  -9.48984 32.9478 35.849 -4.9455 -47.6897 3.71997
RightUpLeg  -48.4451 -2.20999 5.96533
RightLeg  57.0078 14.288 -3.51932
RightFoot  -5.42367 0.145476 -3.31506
RightToes  -5.82073e-011 -3.18055e-015 -2.98177e-016
Spine  25.018 0.774239 8.31186
Spine1  10.6179 3.49503 -5.51224
HEad  -7.9558 -0.23776 -0.972037
LeftShoulder1  -3.88251e-019 9.70628e-020 -3.87848e-018
LeftArm  -174.534 84.7901 139.815
LeftForeArm  -38.97 -55.6264 14.2741
LeftHand  -1.1993 -7.41971 11.3625
RightShoulder  6.26288 9.67019 30.7642
RightArm  28.5889 -64.1984 -4.22168
RightForeArm  -1.77611 43.5634 -25.6361
RightHand  -2.51767 7.61884 -22.1717
LeftUpLeg  -48.3921 -3.49733 2.67782
LeftLeg  45.5145 -5.01298 10.1967
LeftFoot  0.0101836 -0.0862066 0.819556
LeftToes  1.2018e-011 -3.94675e-011 -1.33631e-011
112
root  -10.6766 31.0432 37.3971 -8.69134 -47.3826 4.23319
RightUpLeg  -49.2443 -3.00309 4.75083
RightLeg  70.9119 14.7233 -4.74633
RightFoot  -14.4269 -0.0242204 -9.13027
RightToes  -5.82073e-011 -3.18055e-015 -2.98177e-016
Spine  26.9138 0.197311 5.09421
Spine1  11.3148 1.65881 -1.71934
HEad  -6.14299 1.43547 -2.73943
LeftShoulder1  -3.88251e-019 9.70628e-020 -3.87848e-018
LeftArm  -32.6101 80.503 -87.0079
LeftForeArm  -35.3375 -41.7588 8.52417
LeftHand  -2.00674 -8.95168 16.8484
RightShoulder  6.7601 10.0198 32.6742
RightArm  15.3548 -49.888 12.7727
RightForeArm  -2.70934 32.3239 -17.4649
RightHand  -1.97568 4.47549 -22.7467
LeftUpLeg  -51.5326 -1.61606 1.64518
LeftLeg  61.6941 -10.4058 7.6701
LeftFoot  -1.37486 0.013441 -0.156214
LeftToes  1.2018e-011 -3.94675e-011 -1.33631e-011
